<svg xmlns="http://www.w3.org/2000/svg" viewBox="0 0 150 26.02"><defs><style>.cls-1{fill:#fff;}.cls-2{fill:#1dcad3;}.cls-3{fill:#019cfe;}</style></defs><title>LOGO-150px-negativo</title><g id="Capa_2" data-name="Capa 2"><g id="Capa_1-2" data-name="Capa 1"><path class="cls-1" d="M33.39,20.77H31.73a.49.49,0,0,0-.48.48v1.66a.49.49,0,0,0,.48.48h1.66a.49.49,0,0,0,.48-.48V21.25a.49.49,0,0,0-.48-.48"/><path class="cls-1" d="M41,8.78V23.39H39.11V7.85H40a.92.92,0,0,1,.92.93Z"/><path class="cls-1" d="M92,8.78V23.39H90.13V7.85h.93a.92.92,0,0,1,.66.27A1,1,0,0,1,92,8.78Z"/><path class="cls-1" d="M147.9,16.55A2.13,2.13,0,0,0,150,14.76v-.07H139.45v-5h8.45A2.13,2.13,0,0,0,150,7.91V7.85H137.59V23.4H147.9A2.13,2.13,0,0,0,150,21.61v-.07H139.45v-5Z"/><path class="cls-1" d="M63,15V9.7h8.46a2.12,2.12,0,0,0,2.09-1.78V7.85H61.11v9H71.68v4.66H63.21a2.13,2.13,0,0,0-2.09,1.78v.07H73.53V15Z"/><path class="cls-1" d="M94.08,7.85v.07A2.13,2.13,0,0,0,96.18,9.7h3V23.4h1.86V9.7h3.33a2.13,2.13,0,0,0,2.09-1.79V7.85Z"/><path class="cls-1" d="M123.09,7.85v.07a2.12,2.12,0,0,0,2.09,1.78h3V23.4h1.85V9.7h3.34a2.13,2.13,0,0,0,2.09-1.79V7.85Z"/><path class="cls-1" d="M75.63,7.85v.07A2.12,2.12,0,0,0,77.73,9.7h3V23.4H82.6V9.7h3.34A2.13,2.13,0,0,0,88,7.91V7.85Z"/><path class="cls-1" d="M121,7.85a1.83,1.83,0,0,0-1.84,1.83h0V21.54h-8.71V9.7h0a1.85,1.85,0,0,0-1.85-1.85h0V23.39H121V7.85Z"/><path class="cls-1" d="M55.33,9.71v10.4L47.81,9.37a3.58,3.58,0,0,0-2.92-1.52V23.39h1.85V11.13l8.59,12.26h1.85V7.85h0A1.85,1.85,0,0,0,55.33,9.71Z"/><path class="cls-2" d="M40.86,2.47H39.21a.48.48,0,0,0-.48.49V4.61a.47.47,0,0,0,.48.48h1.65a.47.47,0,0,0,.48-.48V3a.48.48,0,0,0-.48-.49"/><path class="cls-3" d="M3,7.45H.68A.68.68,0,0,0,0,8.13v2.34a.67.67,0,0,0,.68.68H3a.68.68,0,0,0,.68-.68V8.13A.69.69,0,0,0,3,7.45"/><path class="cls-1" d="M26,0V1.86a1.86,1.86,0,0,1-1.86,1.86H11V26H7.33V3.72H1.86A1.86,1.86,0,0,1,0,1.86V0Z"/><path class="cls-1" d="M26,7.43V9.28a1.85,1.85,0,0,1-1.85,1.85H18.54v7.45H14.85V7.43Z"/><path class="cls-1" d="M3.7,16.71V26H0V14.87H1.85A1.84,1.84,0,0,1,3.7,16.71Z"/><path class="cls-3" d="M26,14.87V26H16.69a1.84,1.84,0,0,1-1.84-1.85V22.32h7.47V14.87Z"/></g></g></svg>